<?xml version="1.0" encoding="utf-8" standalone="no"?>
<!DOCTYPE svg PUBLIC "-//W3C//DTD SVG 1.1//EN"
  "http://www.w3.org/Graphics/SVG/1.1/DTD/svg11.dtd">
<svg xmlns:xlink="http://www.w3.org/1999/xlink" width="696.25pt" height="187.21875pt" viewBox="0 0 696.25 187.21875" xmlns="http://www.w3.org/2000/svg" version="1.1">
 <metadata>
  <rdf:RDF xmlns:dc="http://purl.org/dc/elements/1.1/" xmlns:cc="http://creativecommons.org/ns#" xmlns:rdf="http://www.w3.org/1999/02/22-rdf-syntax-ns#">
   <cc:Work>
    <dc:type rdf:resource="http://purl.org/dc/dcmitype/StillImage"/>
    <dc:date>2025-09-25T07:54:43.498303</dc:date>
    <dc:format>image/svg+xml</dc:format>
    <dc:creator>
     <cc:Agent>
      <dc:title>Matplotlib v3.6.3, https://matplotlib.org/</dc:title>
     </cc:Agent>
    </dc:creator>
   </cc:Work>
  </rdf:RDF>
 </metadata>
 <defs>
  <style type="text/css">*{stroke-linejoin: round; stroke-linecap: butt}</style>
 </defs>
 <g id="figure_1">
  <g id="patch_1">
   <path d="M 0 187.21875 
L 696.25 187.21875 
L 696.25 0 
L 0 0 
z
" style="fill: #ffffff"/>
  </g>
  <g id="axes_1">
   <g id="text_1">
    <!-- EVERA -->
    <g style="fill: #333333" transform="translate(0 148.40625) scale(2 -2)">
     <defs>
      <path id="MontserratAlt1-Regular-45" d="M 723 2067 
L 3808 2067 
L 3808 2483 
L 723 2483 
L 723 2067 
z
M 723 4102 
L 3808 4102 
L 3808 4531 
L 723 4531 
L 723 4102 
z
M 723 429 
L 3808 429 
L 3808 0 
L 723 0 
L 723 429 
z
" transform="scale(0.015625)"/>
      <path id="MontserratAlt1-Regular-56" d="M 4467 4480 
L 3968 4480 
L 2253 614 
L 550 4480 
L 13 4480 
L 1997 0 
L 2483 0 
L 4467 4480 
z
" transform="scale(0.015625)"/>
      <path id="MontserratAlt1-Regular-52" d="M 3226 1536 
C 3872 1747 4243 2240 4243 2944 
C 4243 3904 3552 4480 2406 4480 
L 723 4480 
L 723 4051 
L 2394 4051 
C 3283 4051 3750 3648 3750 2944 
C 3750 2240 3283 1837 2394 1837 
L 723 1837 
L 723 0 
L 1216 0 
L 1216 1414 
L 2406 1414 
C 2528 1414 2650 1421 2758 1434 
L 3776 0 
L 4314 0 
L 3226 1536 
z
" transform="scale(0.015625)"/>
      <path id="MontserratAlt1-Regular-41" d="M 2298 3968 
L 4070 0 
L 4589 0 
L 2541 4480 
L 2054 4480 
L 13 0 
L 525 0 
L 2298 3968 
z
" transform="scale(0.015625)"/>
     </defs>
     <use xlink:href="#MontserratAlt1-Regular-45"/>
     <use xlink:href="#MontserratAlt1-Regular-56" x="66.899994"/>
     <use xlink:href="#MontserratAlt1-Regular-45" x="136.899979"/>
     <use xlink:href="#MontserratAlt1-Regular-52" x="203.799973"/>
     <use xlink:href="#MontserratAlt1-Regular-41" x="276.199966"/>
    </g>
   </g>
  </g>
 </g>
</svg>
