<svg xmlns="http://www.w3.org/2000/svg" viewBox="0 0 200 200" role="img" aria-labelledby="unitee-logo-title unitee-logo-desc">
  <title id="unitee-logo-title">Unitee.Space Telegram Mini Apps логотип</title>
  <desc id="unitee-logo-desc">Гексагон с орбитами и стрелкой, символизирующий Unitee.Space.</desc>
  <defs>
    <linearGradient id="uniteeGradient" x1="0" y1="0" x2="1" y2="1">
      <stop offset="0%" stop-color="#7cf6ff" />
      <stop offset="100%" stop-color="#52b6ff" />
    </linearGradient>
  </defs>
  <rect width="200" height="200" rx="36" fill="#0c1b2f" />
  <polygon points="100,32 158,66 158,134 100,168 42,134 42,66" fill="rgba(124,246,255,0.08)" stroke="url(#uniteeGradient)" stroke-width="4" />
  <g stroke="url(#uniteeGradient)" stroke-width="5" fill="none" stroke-linecap="round">
    <path d="M70 110c8 20 36 32 52 26 14-5 22-16 22-30 0-12-8-24-22-30-16-6-44 6-52 26" />
    <path d="M88 74 132 52" opacity="0.7" />
    <path d="M70 128l-20 18" opacity="0.4" />
    <path d="M130 122l22 24" opacity="0.5" />
  </g>
  <polygon points="122,104 138,118 108,140" fill="url(#uniteeGradient)" />
  <text x="100" y="182" text-anchor="middle" fill="#9bdcff" font-family="'IBM Plex Sans', 'Segoe UI', sans-serif" font-size="18" letter-spacing="0.18em">UNITEE</text>
</svg>
