<svg xmlns="http://www.w3.org/2000/svg" viewBox="0 0 1200 630" role="img" aria-labelledby="title desc">
  <title id="title">Павел Дуров представляет проект Cocoon на Blockchain Life 2025</title>
  <desc id="desc">Абстрактная композиция с портретным силуэтом Павла Дурова и сетью узлов TON, созданная в корпоративной палитре Evera.</desc>
  <defs>
    <linearGradient id="bg" x1="0" y1="0" x2="1" y2="1">
      <stop offset="0%" stop-color="#0e1f33" />
      <stop offset="40%" stop-color="#17385a" />
      <stop offset="100%" stop-color="#145c8c" />
    </linearGradient>
    <radialGradient id="halo" cx="0.25" cy="0.4" r="0.55">
      <stop offset="0%" stop-color="#24c2ff" stop-opacity="0.9" />
      <stop offset="100%" stop-color="#24c2ff" stop-opacity="0" />
    </radialGradient>
    <clipPath id="portrait">
      <path d="M496 120c82 0 150 68 150 152 0 45-18 86-48 115 34 26 54 64 54 108 0 87-76 153-170 153s-170-66-170-153c0-44 20-82 54-108-30-29-48-70-48-115 0-84 68-152 150-152z" />
    </clipPath>
  </defs>
  <rect width="1200" height="630" fill="url(#bg)" />
  <rect width="1200" height="630" fill="url(#halo)" />
  <g opacity="0.8">
    <circle cx="860" cy="170" r="90" fill="#1a2f4a" />
    <circle cx="1030" cy="250" r="70" fill="#16263c" />
    <circle cx="900" cy="420" r="110" fill="#112030" />
    <circle cx="700" cy="470" r="80" fill="#19324c" />
  </g>
  <g fill="#1fe5ff" opacity="0.5" stroke="#1fe5ff" stroke-width="2">
    <circle cx="880" cy="160" r="6" />
    <circle cx="1010" cy="260" r="6" />
    <circle cx="820" cy="330" r="6" />
    <circle cx="960" cy="410" r="6" />
    <circle cx="760" cy="470" r="6" />
    <path d="M880 160L1010 260 960 410 760 470 820 330 880 160z" fill="none" />
  </g>
  <g clip-path="url(#portrait)">
    <rect x="330" y="80" width="330" height="470" rx="180" fill="#203b5c" />
    <path d="M476 132c38 0 72 19 96 51 20 28 16 55-4 76-22 23-39 55-28 96l5 18-58 6-58-6 5-18c11-41-6-73-28-96-20-21-24-48-4-76 24-32 58-51 96-51z" fill="#172d47" />
    <path d="M480 270c28 0 50 22 50 50s-22 50-50 50-50-22-50-50 22-50 50-50z" fill="#111d2f" opacity="0.85" />
    <path d="M430 360c30 18 70 18 100 0 34 20 62 52 72 112H358c10-60 38-92 72-112z" fill="#0c1626" opacity="0.8" />
  </g>
  <text x="680" y="130" fill="#8fd8ff" font-size="38" font-family="'IBM Plex Sans', 'Segoe UI', sans-serif" letter-spacing="0.08em">
    PAVEL DUROV
  </text>
  <text x="680" y="182" fill="#ffffff" font-size="54" font-family="'IBM Plex Sans', 'Segoe UI', sans-serif" font-weight="600">
    Cocoon Confidential Compute
  </text>
  <text x="680" y="240" fill="#d9f3ff" font-size="28" font-family="'IBM Plex Sans', 'Segoe UI', sans-serif">
    Blockchain Life 2025 · TON Network Launch
  </text>
  <text x="680" y="310" fill="#79c7ff" font-size="24" font-family="'IBM Plex Sans', 'Segoe UI', sans-serif" letter-spacing="0.1em">
    EVERA · VeraX · TRUST ARCHITECTURE
  </text>
</svg>
